# xmcd CD database file
#
# Track frame offsets:
#	150
#	10584
#	23753
#	36285
#	48316
#	60825
#	73773
#	86644
#	99189
#	112060
#	122646
#	134377
#	146740
#	158921
#	169147
#	179367
#	192524
#	202690
#	214014
#	228543
#	242556
#	254525
#
# Disc length: 3552 seconds
#
# Revision: 0
# Processed by: cddbd v1.4PL0 Copyright (c) Steve Scherf et al.
# Submitted via: CDex 1.50beta10
#
DISCID=2f0dde16
DTITLE=Otis Clay - Testify!
DYEAR=2003
DGENRE=Blues
TTITLE0=I Testify
TTITLE1=A Flame In Your Heart
TTITLE2=I'm Satisfied
TTITLE3=Tired Of Falling (In And Out Of Love)
TTITLE4=I Paid The Price
TTITLE5=I Don't Know What I'd Do
TTITLE6=I Lost Someone
TTITLE7=Nothing To Look Forward To
TTITLE8=It's Easier Said, Than Done
TTITLE9=Come My Dear
TTITLE10=That's How It Is (When You're In Love)
TTITLE11=Funny Life
TTITLE12=Don't Pass Me By
TTITLE13=That'll Get You What You Want
TTITLE14=Wrapped Up In Her Love
TTITLE15=A Lasting Love
TTITLE16=Show Place
TTITLE17=Cry Cry Cry
TTITLE18=This Love Of Mine
TTITLE19=Three Is A Crowd
TTITLE20=Must I Keep On Waiting
TTITLE21=Got To Find A Way
EXTD=YEAR: 2003
EXTT0=
EXTT1=
EXTT2=
EXTT3=
EXTT4=
EXTT5=
EXTT6=
EXTT7=
EXTT8=
EXTT9=
EXTT10=
EXTT11=
EXTT12=
EXTT13=
EXTT14=
EXTT15=
EXTT16=
EXTT17=
EXTT18=
EXTT19=
EXTT20=
EXTT21=
PLAYORDER=
